<svg id="Layer_1" data-name="Layer 1" xmlns="http://www.w3.org/2000/svg" viewBox="0 0 128 18.17"><defs><style>.cls-1{fill:#dc502e;}.cls-2{fill:#052238;}</style></defs><path class="cls-1" d="M.44,9.94,1,9.59a.3.3,0,0,1,.29,0L3.78,11a.08.08,0,0,1,0,.15l-.39.23a.29.29,0,0,0,0,.51l5,2.93a.89.89,0,0,0,.89,0l5-2.93a.29.29,0,0,0,0-.51l-5-2.93a.89.89,0,0,0-.89,0l-.16.1a.32.32,0,0,1-.3,0L5.49,7.14a.09.09,0,0,1,0-.15l2.92-1.7a.89.89,0,0,1,.89,0l8,4.65a.88.88,0,0,1,.44.76v1.94a.89.89,0,0,1-.44.76l-8,4.65a.89.89,0,0,1-.89,0l-8-4.65A.89.89,0,0,1,0,12.64V10.7A.88.88,0,0,1,.44,9.94Z"/><path class="cls-1" d="M.44,4.77l8-4.65a.89.89,0,0,1,.89,0l8,4.65a.89.89,0,0,1,.44.76V7.47a.88.88,0,0,1-.44.76l-.58.35a.32.32,0,0,1-.3,0L13.93,7.14a.09.09,0,0,1,0-.15l.39-.23a.29.29,0,0,0,0-.51l-5-2.93a.89.89,0,0,0-.89,0l-5,2.93a.29.29,0,0,0,0,.51l5,2.93a.89.89,0,0,0,.89,0l.16-.1a.32.32,0,0,1,.3,0L12.22,11a.09.09,0,0,1,0,.15L9.3,12.88a.84.84,0,0,1-.89,0l-8-4.65A.88.88,0,0,1,0,7.47V5.54A.89.89,0,0,1,.44,4.77Z"/><path class="cls-2" d="M20.73,11.4l.58-.69a.27.27,0,0,1,.37-.05,3.12,3.12,0,0,0,1.93.71c.64,0,1-.26,1-.67v0c0-.4-.24-.61-1.44-.91C21.77,9.4,20.84,9,20.84,7.59v0a2.23,2.23,0,0,1,2.5-2.15,4.12,4.12,0,0,1,2.43.74.28.28,0,0,1,.07.38l-.52.74a.27.27,0,0,1-.38.08,3.1,3.1,0,0,0-1.63-.56c-.6,0-.91.28-.91.62v0c0,.47.3.63,1.54.94,1.44.38,2.26.9,2.26,2.14v0c0,1.42-1.08,2.22-2.62,2.22a4.55,4.55,0,0,1-2.82-1A.27.27,0,0,1,20.73,11.4Z"/><path class="cls-2" d="M29.79,5.47h1.08a.26.26,0,0,1,.25.16L34,12.27a.28.28,0,0,1-.26.38h-1a.26.26,0,0,1-.25-.17l-.57-1.4a.05.05,0,0,0,0,0h-3s0,0,0,0l-.57,1.4a.28.28,0,0,1-.26.17H27a.27.27,0,0,1-.25-.38l2.82-6.64A.29.29,0,0,1,29.79,5.47ZM31.23,9.6l-.88-2.14a0,0,0,0,0-.09,0L29.39,9.6a0,0,0,0,0,0,.07h1.76S31.24,9.63,31.23,9.6Z"/><path class="cls-2" d="M35.23,5.52h1a.27.27,0,0,1,.22.11L39.66,9.8a0,0,0,0,0,.09,0v-4A.27.27,0,0,1,40,5.52h1a.27.27,0,0,1,.27.27v6.59a.27.27,0,0,1-.27.27H40.1a.27.27,0,0,1-.22-.11L36.59,8.23a0,0,0,0,0-.09,0v4.13a.27.27,0,0,1-.27.27h-1a.28.28,0,0,1-.28-.27V5.79A.28.28,0,0,1,35.23,5.52Z"/><path class="cls-2" d="M42.44,9.11v0a3.84,3.84,0,0,1,6.32-2.78.27.27,0,0,1,0,.39l-.64.74a.28.28,0,0,1-.38,0,2.49,2.49,0,0,0-1.62-.64,2.11,2.11,0,0,0-2.07,2.23v.11a2.12,2.12,0,0,0,2.1,2.15,2.46,2.46,0,0,0,1.65-.67.28.28,0,0,1,.37,0l.63.63a.27.27,0,0,1,0,.39,3.75,3.75,0,0,1-6.38-2.59Z"/><path class="cls-2" d="M51.59,7H49.78a.28.28,0,0,1-.27-.28v-.9a.27.27,0,0,1,.27-.27h5.37a.27.27,0,0,1,.27.27v.9a.28.28,0,0,1-.27.28H53.34a.09.09,0,0,0-.09.09v5.32a.27.27,0,0,1-.28.27H52a.27.27,0,0,1-.28-.27V7.06A.09.09,0,0,0,51.59,7Z"/><path class="cls-2" d="M56.72,5.52h1a.27.27,0,0,1,.28.27v6.59a.27.27,0,0,1-.28.27h-1a.27.27,0,0,1-.28-.27V5.79A.27.27,0,0,1,56.72,5.52Z"/><path class="cls-2" d="M59.22,9.11v0a3.8,3.8,0,0,1,7.59,0v0a3.8,3.8,0,0,1-7.59,0Zm5.94,0v0A2.17,2.17,0,0,0,63,6.84a2.14,2.14,0,0,0-2.14,2.23v0A2.17,2.17,0,0,0,63,11.33,2.13,2.13,0,0,0,65.16,9.11Z"/><path class="cls-2" d="M68.22,5.52h1a.29.29,0,0,1,.22.11L72.65,9.8a0,0,0,0,0,.09,0v-4A.27.27,0,0,1,73,5.52h1a.28.28,0,0,1,.28.27v6.59a.28.28,0,0,1-.28.27h-.92a.27.27,0,0,1-.22-.11L69.58,8.23a0,0,0,0,0-.08,0v4.13a.28.28,0,0,1-.28.27h-1a.27.27,0,0,1-.27-.27V5.79A.27.27,0,0,1,68.22,5.52Z"/><path class="cls-2" d="M78.23,11.4l.58-.69a.28.28,0,0,1,.38-.05,3.1,3.1,0,0,0,1.93.71c.64,0,1-.26,1-.67v0c0-.4-.24-.61-1.43-.91C79.27,9.4,78.34,9,78.34,7.59v0a2.23,2.23,0,0,1,2.5-2.15,4.15,4.15,0,0,1,2.44.74.28.28,0,0,1,.06.38l-.51.74a.28.28,0,0,1-.38.08,3.13,3.13,0,0,0-1.63-.56c-.6,0-.92.28-.92.62v0c0,.47.31.63,1.54.94,1.45.38,2.26.9,2.26,2.14v0c0,1.42-1.08,2.22-2.62,2.22a4.52,4.52,0,0,1-2.81-1A.28.28,0,0,1,78.23,11.4Z"/><path class="cls-2" d="M84.5,9.11v0A3.63,3.63,0,0,1,88.22,5.4a3.69,3.69,0,0,1,2.61.91.28.28,0,0,1,0,.39l-.65.74a.27.27,0,0,1-.37,0,2.49,2.49,0,0,0-1.63-.64,2.12,2.12,0,0,0-2.07,2.23v.11a2.12,2.12,0,0,0,2.1,2.15,2.49,2.49,0,0,0,1.66-.67.27.27,0,0,1,.37,0l.62.63a.26.26,0,0,1,0,.39,3.57,3.57,0,0,1-2.72,1.08A3.61,3.61,0,0,1,84.5,9.11Z"/><path class="cls-2" d="M94.71,5.47h1.08a.29.29,0,0,1,.26.16l2.82,6.64a.27.27,0,0,1-.25.38h-1a.27.27,0,0,1-.26-.17l-.57-1.4s0,0,0,0h-3a.05.05,0,0,0,0,0l-.57,1.4a.26.26,0,0,1-.26.17h-1a.28.28,0,0,1-.26-.38l2.83-6.64A.26.26,0,0,1,94.71,5.47ZM96.15,9.6l-.88-2.14a0,0,0,0,0-.08,0L94.31,9.6s0,.07,0,.07h1.76A0,0,0,0,0,96.15,9.6Z"/><path class="cls-2" d="M100.15,5.52h1a.27.27,0,0,1,.22.11l3.18,4.17s.08,0,.08,0v-4a.27.27,0,0,1,.28-.27h1a.27.27,0,0,1,.28.27v6.59a.27.27,0,0,1-.28.27H105a.27.27,0,0,1-.22-.11l-3.29-4.31a0,0,0,0,0-.08,0v4.13a.28.28,0,0,1-.28.27h-1a.27.27,0,0,1-.27-.27V5.79A.27.27,0,0,1,100.15,5.52Z"/><path class="cls-2" d="M108,5.52h1a.29.29,0,0,1,.22.11l3.17,4.17a0,0,0,0,0,.09,0v-4a.27.27,0,0,1,.27-.27h1a.28.28,0,0,1,.28.27v6.59a.28.28,0,0,1-.28.27h-.92a.27.27,0,0,1-.22-.11l-3.29-4.31a0,0,0,0,0-.08,0v4.13a.28.28,0,0,1-.28.27h-1a.27.27,0,0,1-.27-.27V5.79A.27.27,0,0,1,108,5.52Z"/><path class="cls-2" d="M115.75,5.52h4.83a.28.28,0,0,1,.28.27v.85a.28.28,0,0,1-.28.27h-3.36a.19.19,0,0,0-.19.19V8.18a.18.18,0,0,0,.19.18h2.9a.29.29,0,0,1,.28.28v.84a.29.29,0,0,1-.28.28h-2.9a.18.18,0,0,0-.19.18v1.13a.19.19,0,0,0,.19.19h3.41a.28.28,0,0,1,.28.27v.85a.28.28,0,0,1-.28.27h-4.88a.28.28,0,0,1-.28-.27V5.79A.28.28,0,0,1,115.75,5.52Z"/><path class="cls-2" d="M122.05,5.79a.27.27,0,0,1,.27-.27h3a2.84,2.84,0,0,1,2.08.72A2.23,2.23,0,0,1,128,7.87v0a2.21,2.21,0,0,1-1.53,2.21l1.45,2.12a.28.28,0,0,1-.23.43h-1.16a.26.26,0,0,1-.23-.12l-1.4-2.08a.18.18,0,0,0-.15-.08h-1a.18.18,0,0,0-.18.18v1.83a.28.28,0,0,1-.28.27h-1a.27.27,0,0,1-.27-.27ZM125.21,9c.76,0,1.2-.4,1.2-1V8c0-.67-.47-1-1.23-1H123.8a.19.19,0,0,0-.18.19V8.8a.18.18,0,0,0,.18.18Z"/></svg>